<svg width="119" height="38" viewBox="0 0 119 38" fill="none" xmlns="http://www.w3.org/2000/svg">
<g filter="url(#filter0_d_14110_13)">
<rect x="2" y="1" width="115" height="34" rx="6" fill="black"/>
<g clip-path="url(#clip0_14110_13)">
<rect width="16" height="16" transform="translate(23.5 10)" fill="white"/>
<path fill-rule="evenodd" clip-rule="evenodd" d="M31.5 11.03C27.4633 11.03 24.1953 14.2813 24.1953 18.2853C24.1953 21.2253 25.9573 23.7553 28.4933 24.8933C28.7587 25.0127 29.018 24.9653 29.2207 24.8133C29.3327 24.7261 29.4231 24.614 29.4846 24.486C29.5462 24.3579 29.5772 24.2174 29.5753 24.0753V23.6953L28.6707 23.5727C28.664 23.5718 28.6573 23.5707 28.6507 23.5693C28.152 23.472 27.8153 23.2967 27.5687 23.044C27.3613 22.8313 27.2347 22.5767 27.1273 22.3607L27.09 22.2853C26.9908 22.0784 26.8825 21.876 26.7653 21.6787C26.6753 21.536 26.6053 21.4627 26.536 21.4167C26.36 21.3 26.1907 21.102 26.1907 20.8547C26.1901 20.7835 26.2053 20.7131 26.2353 20.6485C26.2653 20.5839 26.3092 20.5268 26.364 20.4813C26.4674 20.3995 26.5962 20.3566 26.728 20.36C26.876 20.36 27.0153 20.4053 27.1313 20.4573C27.25 20.5107 27.368 20.5813 27.478 20.6547C27.746 20.8333 28.01 21.0447 28.2333 21.3053C28.466 21.576 28.6307 21.748 28.8787 21.7833C29.0827 21.8127 29.2907 21.8133 29.4527 21.806C29.4752 21.6778 29.5123 21.5525 29.5633 21.4327C29.3655 21.3865 29.1703 21.3295 28.9787 21.262C28.5427 21.1073 28.0567 20.8667 27.73 20.502C27.3713 20.1007 27.1493 19.7427 27.0253 19.324C26.9047 18.916 26.8847 18.474 26.8847 17.93C26.8847 17.0967 27.2453 16.3947 27.516 16.022C27.412 15.6957 27.3373 15.3609 27.2927 15.0213C27.2631 14.8072 27.2634 14.5901 27.2933 14.376C27.3267 14.1807 27.41 13.9407 27.6293 13.796C27.8407 13.6553 28.0887 13.6613 28.282 13.6973C28.4827 13.7353 28.6913 13.8187 28.8833 13.914C29.196 14.0687 29.5067 14.2753 29.7393 14.4507C30.1407 14.3327 30.8507 14.1807 31.4927 14.1667H31.5073C32.15 14.1807 32.828 14.3327 33.2193 14.45C33.4527 14.2753 33.7627 14.068 34.0747 13.914C34.2667 13.8187 34.4747 13.7353 34.676 13.6973C34.8693 13.6613 35.1173 13.6553 35.3293 13.7953C35.548 13.9407 35.632 14.1807 35.6647 14.376C35.6987 14.5793 35.6907 14.8067 35.6647 15.0213C35.6203 15.3608 35.5457 15.6957 35.442 16.022C35.7127 16.3953 36.0733 17.0973 36.0733 17.93C36.0733 18.474 36.0533 18.916 35.9333 19.3233C35.8087 19.7433 35.5867 20.1007 35.228 20.502C34.9013 20.8667 34.4153 21.1073 33.9793 21.262C33.7479 21.3434 33.5114 21.4095 33.2713 21.46C33.3533 21.708 33.3827 21.9087 33.3827 22.024V24.084C33.3827 24.3973 33.5287 24.6647 33.736 24.8207C33.9373 24.9733 34.196 25.0207 34.4613 24.9047C37.0213 23.7767 38.804 21.24 38.804 18.2847C38.804 14.2813 35.5373 11.03 31.5 11.03ZM29.8173 22.4733C29.644 22.498 29.8167 22.4733 29.8167 22.4733H29.8147L29.8093 22.4747L29.79 22.4773C29.691 22.489 29.5916 22.4972 29.492 22.502C29.304 22.5107 29.046 22.5113 28.7813 22.4733C28.254 22.3987 27.9333 22.0253 27.726 21.7827L27.706 21.76C27.6382 21.6814 27.5654 21.6072 27.488 21.538C27.5567 21.6647 27.628 21.806 27.7047 21.958L27.7113 21.9713L27.7453 22.0407C27.862 22.2727 27.9387 22.4273 28.066 22.5567C28.19 22.6833 28.3833 22.806 28.774 22.8833L29.97 23.0453C30.0535 23.0567 30.1301 23.0979 30.1855 23.1614C30.241 23.2249 30.2714 23.3064 30.2713 23.3907V24.0753C30.2713 24.6087 30.0213 25.084 29.638 25.372C29.4367 25.5258 29.1973 25.6217 28.9456 25.6494C28.6938 25.6772 28.4392 25.6356 28.2093 25.5293C25.4347 24.2847 23.5 21.5133 23.5 18.2853C23.5 13.8907 27.0847 10.3333 31.5 10.3333C35.9153 10.3333 39.5 13.8907 39.5 18.2853C39.5 21.53 37.5407 24.3087 34.742 25.5427C34.5119 25.647 34.2578 25.6867 34.0069 25.6577C33.7559 25.6287 33.5176 25.532 33.3173 25.378C33.1193 25.2256 32.9594 25.0294 32.85 24.8047C32.7405 24.5801 32.6846 24.3332 32.6867 24.0833V22.0233C32.6867 21.9767 32.654 21.7073 32.472 21.3453C32.4469 21.2951 32.4342 21.2396 32.4351 21.1835C32.436 21.1274 32.4504 21.0723 32.4771 21.0229C32.5038 20.9735 32.5419 20.9313 32.5884 20.8998C32.6349 20.8683 32.6882 20.8485 32.744 20.842C32.9727 20.8167 33.358 20.7427 33.7467 20.6047C34.1427 20.4647 34.498 20.2727 34.7093 20.0367C35.0233 19.686 35.18 19.4167 35.266 19.1253C35.3553 18.8233 35.378 18.472 35.378 17.93C35.378 17.1693 34.978 16.53 34.794 16.324C34.7522 16.2775 34.7238 16.2205 34.7116 16.1592C34.6994 16.0978 34.7039 16.0343 34.7247 15.9753C34.818 15.7127 34.9313 15.304 34.9747 14.9393C34.996 14.756 34.9973 14.6027 34.9787 14.492C34.9745 14.4515 34.9622 14.4123 34.9427 14.3767C34.8968 14.3687 34.8497 14.3708 34.8047 14.3827C34.6913 14.404 34.5467 14.4573 34.3827 14.5387C34.056 14.7 33.716 14.9387 33.5053 15.1093C33.4589 15.147 33.4035 15.1721 33.3445 15.182C33.2855 15.1919 33.2249 15.1864 33.1687 15.166C32.6289 14.9894 32.0674 14.8878 31.5 14.864C30.8287 14.88 30.054 15.0707 29.7893 15.166C29.7331 15.1864 29.6725 15.1919 29.6135 15.182C29.5545 15.1721 29.4991 15.147 29.4527 15.1093C29.1802 14.89 28.8863 14.6988 28.5753 14.5387C28.4418 14.4686 28.2997 14.4161 28.1527 14.3827C28.1078 14.3709 28.061 14.3688 28.0153 14.3767C27.9957 14.4123 27.9835 14.4515 27.9793 14.492C27.9607 14.6027 27.962 14.756 27.9833 14.9393C28.0267 15.304 28.1407 15.7127 28.2333 15.9753C28.2753 16.0953 28.2493 16.2287 28.164 16.324C27.98 16.53 27.58 17.1693 27.58 17.93C27.58 18.4713 27.6027 18.8233 27.692 19.1253C27.7787 19.4167 27.9347 19.6853 28.248 20.0367C28.46 20.2727 28.8147 20.4647 29.2113 20.6047C29.5358 20.7195 29.8718 20.7991 30.2133 20.842C30.2836 20.8496 30.3499 20.8783 30.4034 20.9245C30.457 20.9706 30.4952 21.032 30.513 21.1004C30.5308 21.1688 30.5273 21.2409 30.5031 21.3073C30.4789 21.3737 30.435 21.4312 30.3773 21.472C30.2673 21.5507 30.1947 21.692 30.154 21.8553C30.133 21.9394 30.1205 22.0254 30.1167 22.112V22.1247C30.1175 22.2092 30.0876 22.2912 30.0326 22.3553C29.9775 22.4194 29.901 22.4614 29.8173 22.4733V22.4733Z" fill="black"/>
</g>
<path d="M55.5092 16.0348C55.4131 15.7332 55.2839 15.4631 55.1214 15.2244C54.9624 14.9825 54.7718 14.777 54.5497 14.608C54.3277 14.4356 54.0741 14.3047 53.7891 14.2152C53.5073 14.1257 53.1974 14.081 52.8594 14.081C52.286 14.081 51.7689 14.2285 51.3082 14.5234C50.8475 14.8184 50.483 15.2509 50.2145 15.821C49.9493 16.3878 49.8168 17.0821 49.8168 17.9041C49.8168 18.7294 49.951 19.4271 50.2195 19.9972C50.4879 20.5672 50.8558 20.9998 51.3232 21.2947C51.7905 21.5897 52.3224 21.7372 52.919 21.7372C53.4725 21.7372 53.9548 21.6245 54.3658 21.3991C54.7801 21.1738 55.0999 20.8556 55.3253 20.4446C55.554 20.0303 55.6683 19.5431 55.6683 18.983L56.0661 19.0575H53.1527V17.7898H57.1548V18.9482C57.1548 19.8033 56.9725 20.5457 56.608 21.1754C56.2467 21.8018 55.7462 22.2857 55.1065 22.6271C54.4702 22.9685 53.741 23.1392 52.919 23.1392C51.9976 23.1392 51.1889 22.9271 50.4929 22.5028C49.8002 22.0786 49.2599 21.477 48.8722 20.6982C48.4844 19.916 48.2905 18.9879 48.2905 17.9141C48.2905 17.102 48.4032 16.3729 48.6286 15.7266C48.8539 15.0803 49.1705 14.5317 49.5781 14.081C49.9891 13.6269 50.4714 13.2805 51.0249 13.0419C51.5817 12.8 52.1899 12.679 52.8494 12.679C53.3996 12.679 53.9117 12.7602 54.3857 12.9226C54.8629 13.085 55.2872 13.3153 55.6584 13.6136C56.0329 13.9119 56.3428 14.2666 56.5881 14.6776C56.8333 15.0852 56.9991 15.5376 57.0852 16.0348H55.5092ZM59.4641 23V15.3636H60.9506V23H59.4641ZM60.2148 14.1854C59.9563 14.1854 59.7343 14.0992 59.5487 13.9268C59.3664 13.7512 59.2752 13.5424 59.2752 13.3004C59.2752 13.0552 59.3664 12.8464 59.5487 12.674C59.7343 12.4983 59.9563 12.4105 60.2148 12.4105C60.4734 12.4105 60.6938 12.4983 60.8761 12.674C61.0617 12.8464 61.1545 13.0552 61.1545 13.3004C61.1545 13.5424 61.0617 13.7512 60.8761 13.9268C60.6938 14.0992 60.4734 14.1854 60.2148 14.1854ZM66.5151 15.3636V16.5568H62.3439V15.3636H66.5151ZM63.4625 13.5341H64.949V20.7578C64.949 21.0462 64.9921 21.2633 65.0783 21.4091C65.1645 21.5516 65.2755 21.6494 65.4114 21.7024C65.5506 21.7521 65.7014 21.777 65.8638 21.777C65.9831 21.777 66.0875 21.7687 66.177 21.7521C66.2665 21.7356 66.3361 21.7223 66.3858 21.7124L66.6543 22.9403C66.5681 22.9735 66.4455 23.0066 66.2864 23.0398C66.1273 23.0762 65.9284 23.0961 65.6898 23.0994C65.2987 23.1061 64.9341 23.0365 64.5961 22.8906C64.258 22.7448 63.9846 22.5194 63.7757 22.2145C63.5669 21.9096 63.4625 21.5268 63.4625 21.0661V13.5341ZM69.81 18.4659V23H68.3235V12.8182H69.7901V16.6065H69.8846C70.0636 16.1955 70.337 15.8691 70.7049 15.6271C71.0728 15.3852 71.5534 15.2642 72.1467 15.2642C72.6703 15.2642 73.1277 15.3719 73.5188 15.5874C73.9132 15.8028 74.2182 16.1243 74.4336 16.5518C74.6523 16.9761 74.7617 17.5064 74.7617 18.1428V23H73.2752V18.3217C73.2752 17.7616 73.131 17.3274 72.8427 17.0192C72.5543 16.7076 72.1533 16.5518 71.6396 16.5518C71.2882 16.5518 70.9734 16.6264 70.695 16.7756C70.4199 16.9247 70.2028 17.1435 70.0437 17.4318C69.8879 17.7169 69.81 18.0616 69.81 18.4659ZM81.5827 19.8331V15.3636H83.0742V23H81.6126V21.6776H81.533C81.3574 22.0852 81.0756 22.425 80.6879 22.6967C80.3034 22.9652 79.8245 23.0994 79.2511 23.0994C78.7605 23.0994 78.3263 22.9917 77.9485 22.7763C77.574 22.5575 77.279 22.2344 77.0636 21.8068C76.8514 21.3793 76.7454 20.8506 76.7454 20.2209V15.3636H78.2319V20.0419C78.2319 20.5623 78.3761 20.9766 78.6644 21.2848C78.9528 21.593 79.3273 21.7472 79.788 21.7472C80.0664 21.7472 80.3432 21.6776 80.6183 21.5384C80.8967 21.3991 81.127 21.1887 81.3093 20.907C81.4949 20.6252 81.5861 20.2673 81.5827 19.8331ZM85.1909 23V12.8182H86.6774V16.6016H86.7669C86.853 16.4425 86.9773 16.2585 87.1397 16.0497C87.3021 15.8409 87.5275 15.6586 87.8159 15.5028C88.1042 15.3438 88.4854 15.2642 88.9593 15.2642C89.5758 15.2642 90.126 15.42 90.6099 15.7315C91.0938 16.0431 91.4733 16.4922 91.7484 17.0788C92.0268 17.6655 92.166 18.3714 92.166 19.1967C92.166 20.022 92.0285 20.7296 91.7534 21.3196C91.4783 21.9062 91.1004 22.3587 90.6199 22.6768C90.1393 22.9917 89.5907 23.1491 88.9743 23.1491C88.5102 23.1491 88.1307 23.0713 87.8358 22.9155C87.5441 22.7597 87.3154 22.5774 87.1497 22.3686C86.984 22.1598 86.8564 21.9742 86.7669 21.8118H86.6426V23H85.1909ZM86.6475 19.1818C86.6475 19.7187 86.7254 20.1894 86.8812 20.5938C87.037 20.9981 87.2624 21.3146 87.5574 21.5433C87.8523 21.7687 88.2136 21.8814 88.6412 21.8814C89.0853 21.8814 89.4565 21.7637 89.7548 21.5284C90.0531 21.2898 90.2785 20.9666 90.4309 20.5589C90.5867 20.1513 90.6646 19.6922 90.6646 19.1818C90.6646 18.678 90.5884 18.2256 90.4359 17.8246C90.2868 17.4235 90.0614 17.107 89.7598 16.875C89.4615 16.643 89.0886 16.527 88.6412 16.527C88.2103 16.527 87.8457 16.638 87.5474 16.8601C87.2524 17.0821 87.0287 17.392 86.8762 17.7898C86.7238 18.1875 86.6475 18.6515 86.6475 19.1818Z" fill="white"/>
<rect x="2.5" y="1.5" width="114" height="33" rx="5.5" stroke="#D1D5DB"/>
</g>
<defs>
<filter id="filter0_d_14110_13" x="0" y="0" width="119" height="38" filterUnits="userSpaceOnUse" color-interpolation-filters="sRGB">
<feFlood flood-opacity="0" result="BackgroundImageFix"/>
<feColorMatrix in="SourceAlpha" type="matrix" values="0 0 0 0 0 0 0 0 0 0 0 0 0 0 0 0 0 0 127 0" result="hardAlpha"/>
<feOffset dy="1"/>
<feGaussianBlur stdDeviation="1"/>
<feColorMatrix type="matrix" values="0 0 0 0 0 0 0 0 0 0 0 0 0 0 0 0 0 0 0.05 0"/>
<feBlend mode="normal" in2="BackgroundImageFix" result="effect1_dropShadow_14110_13"/>
<feBlend mode="normal" in="SourceGraphic" in2="effect1_dropShadow_14110_13" result="shape"/>
</filter>
<clipPath id="clip0_14110_13">
<rect width="16" height="16" fill="white" transform="translate(23.5 10)"/>
</clipPath>
</defs>
</svg>
